%TF.GenerationSoftware,KiCad,Pcbnew,10.0.1*%
%TF.CreationDate,2026-08-14T12:01:03-06:00*%
%TF.ProjectId,Seeed_buttonmodule,53656565-645f-4627-9574-746f6e6d6f64,rev?*%
%TF.SameCoordinates,Original*%
%TF.FileFunction,Copper,L2,Bot*%
%TF.FilePolarity,Positive*%
%FSLAX46Y46*%
G04 Gerber Fmt 4.6, Leading zero omitted, Abs format (unit mm)*
G04 Created by KiCad (PCBNEW 10.0.1) date 2026-08-14 12:01:03*
%MOMM*%
%LPD*%
G01*
G04 APERTURE LIST*
G04 Aperture macros list*
%AMRoundRect*
0 Rectangle with rounded corners*
0 $1 Rounding radius*
0 $2 $3 $4 $5 $6 $7 $8 $9 X,Y pos of 4 corners*
0 Add a 4 corners polygon primitive as box body*
4,1,4,$2,$3,$4,$5,$6,$7,$8,$9,$2,$3,0*
0 Add four circle primitives for the rounded corners*
1,1,$1+$1,$2,$3*
1,1,$1+$1,$4,$5*
1,1,$1+$1,$6,$7*
1,1,$1+$1,$8,$9*
0 Add four rect primitives between the rounded corners*
20,1,$1+$1,$2,$3,$4,$5,0*
20,1,$1+$1,$4,$5,$6,$7,0*
20,1,$1+$1,$6,$7,$8,$9,0*
20,1,$1+$1,$8,$9,$2,$3,0*%
G04 Aperture macros list end*
%TA.AperFunction,ComponentPad*%
%ADD10RoundRect,0.250001X-0.949999X-0.949999X0.949999X-0.949999X0.949999X0.949999X-0.949999X0.949999X0*%
%TD*%
%TA.AperFunction,ComponentPad*%
%ADD11C,2.400000*%
%TD*%
%TA.AperFunction,ComponentPad*%
%ADD12C,2.000000*%
%TD*%
%TA.AperFunction,Conductor*%
%ADD13C,1.000000*%
%TD*%
G04 APERTURE END LIST*
D10*
%TO.P,REF\u002A\u002A,1*%
%TO.N,PIN*%
X18150000Y-29050000D03*
D11*
%TO.P,REF\u002A\u002A,2*%
%TO.N,GND*%
X21650000Y-29050000D03*
%TD*%
D12*
%TO.P,REF\u002A\u002A,1*%
%TO.N,PIN*%
X16250000Y-16150000D03*
X22750000Y-16150000D03*
%TO.P,REF\u002A\u002A,2*%
%TO.N,GND*%
X16250000Y-20650000D03*
X22750000Y-20650000D03*
%TD*%
%TO.N,GND*%
D13*
X22750000Y-27950000D02*
X21650000Y-29050000D01*
X16250000Y-20650000D02*
X22750000Y-20650000D01*
X22750000Y-20650000D02*
X22750000Y-27950000D01*
%TO.N,PIN*%
X16250000Y-16150000D02*
X22750000Y-16150000D01*
X14150000Y-25050000D02*
X18150000Y-29050000D01*
X14150000Y-18250000D02*
X14150000Y-25050000D01*
X16250000Y-16150000D02*
X14150000Y-18250000D01*
%TD*%
%TA.AperFunction,Conductor*%
%TO.N,GND*%
G36*
X24792539Y-13570185D02*
G01*
X24838294Y-13622989D01*
X24849500Y-13674500D01*
X24849500Y-33025500D01*
X24829815Y-33092539D01*
X24777011Y-33138294D01*
X24725500Y-33149500D01*
X13674500Y-33149500D01*
X13607461Y-33129815D01*
X13561706Y-33077011D01*
X13550500Y-33025500D01*
X13550500Y-26164782D01*
X13570185Y-26097743D01*
X13622989Y-26051988D01*
X13692147Y-26042044D01*
X13755703Y-26071069D01*
X13762181Y-26077101D01*
X16413181Y-28728101D01*
X16446666Y-28789424D01*
X16449500Y-28815782D01*
X16449500Y-30050015D01*
X16460000Y-30152795D01*
X16460001Y-30152796D01*
X16515186Y-30319335D01*
X16515187Y-30319337D01*
X16607286Y-30468651D01*
X16607289Y-30468655D01*
X16731344Y-30592710D01*
X16731348Y-30592713D01*
X16880662Y-30684812D01*
X16880664Y-30684813D01*
X16880666Y-30684814D01*
X17047203Y-30739999D01*
X17149992Y-30750500D01*
X17149997Y-30750500D01*
X19150003Y-30750500D01*
X19150008Y-30750500D01*
X19252797Y-30739999D01*
X19419334Y-30684814D01*
X19568655Y-30592711D01*
X19692711Y-30468655D01*
X19784814Y-30319334D01*
X19839999Y-30152797D01*
X19850500Y-30050008D01*
X19850500Y-29771326D01*
X19870185Y-29704287D01*
X19922989Y-29658532D01*
X19992147Y-29648588D01*
X20055703Y-29677613D01*
X20089061Y-29723873D01*
X20122045Y-29803502D01*
X20122054Y-29803520D01*
X20233464Y-29996491D01*
X20233473Y-29996504D01*
X20284040Y-30062403D01*
X20284043Y-30062403D01*
X21085387Y-29261058D01*
X21090889Y-29281591D01*
X21169881Y-29418408D01*
X21281592Y-29530119D01*
X21418409Y-29609111D01*
X21438940Y-29614612D01*
X20637595Y-30415955D01*
X20637595Y-30415956D01*
X20703507Y-30466533D01*
X20896485Y-30577949D01*
X20896497Y-30577954D01*
X21102381Y-30663236D01*
X21317632Y-30720911D01*
X21317645Y-30720914D01*
X21538575Y-30750000D01*
X21761425Y-30750000D01*
X21982354Y-30720914D01*
X21982367Y-30720911D01*
X22197618Y-30663236D01*
X22403502Y-30577954D01*
X22403514Y-30577949D01*
X22596498Y-30466530D01*
X22662403Y-30415957D01*
X22662404Y-30415956D01*
X21861059Y-29614612D01*
X21881591Y-29609111D01*
X22018408Y-29530119D01*
X22130119Y-29418408D01*
X22209111Y-29281591D01*
X22214612Y-29261059D01*
X23015956Y-30062404D01*
X23015957Y-30062403D01*
X23066530Y-29996498D01*
X23177949Y-29803514D01*
X23177954Y-29803502D01*
X23263236Y-29597618D01*
X23320911Y-29382367D01*
X23320914Y-29382354D01*
X23350000Y-29161424D01*
X23350000Y-28938575D01*
X23320914Y-28717645D01*
X23320911Y-28717632D01*
X23263236Y-28502381D01*
X23177954Y-28296497D01*
X23177949Y-28296485D01*
X23066533Y-28103507D01*
X23015956Y-28037595D01*
X23015955Y-28037595D01*
X22214612Y-28838939D01*
X22209111Y-28818409D01*
X22130119Y-28681592D01*
X22018408Y-28569881D01*
X21881591Y-28490889D01*
X21861058Y-28485387D01*
X22662403Y-27684043D01*
X22662403Y-27684040D01*
X22596504Y-27633473D01*
X22596491Y-27633464D01*
X22403520Y-27522054D01*
X22403502Y-27522045D01*
X22197618Y-27436763D01*
X21982367Y-27379088D01*
X21982354Y-27379085D01*
X21761425Y-27350000D01*
X21538575Y-27350000D01*
X21317645Y-27379085D01*
X21317632Y-27379088D01*
X21102381Y-27436763D01*
X20896497Y-27522045D01*
X20896479Y-27522054D01*
X20703511Y-27633462D01*
X20637595Y-27684042D01*
X21438941Y-28485387D01*
X21418409Y-28490889D01*
X21281592Y-28569881D01*
X21169881Y-28681592D01*
X21090889Y-28818409D01*
X21085387Y-28838940D01*
X20284042Y-28037595D01*
X20233462Y-28103511D01*
X20122054Y-28296479D01*
X20122047Y-28296492D01*
X20089061Y-28376127D01*
X20045219Y-28430530D01*
X19978925Y-28452594D01*
X19911226Y-28435314D01*
X19863616Y-28384177D01*
X19850500Y-28328673D01*
X19850500Y-28049997D01*
X19850499Y-28049984D01*
X19849233Y-28037595D01*
X19839999Y-27947203D01*
X19784814Y-27780666D01*
X19692711Y-27631345D01*
X19568655Y-27507289D01*
X19568651Y-27507286D01*
X19419337Y-27415187D01*
X19419335Y-27415186D01*
X19336065Y-27387593D01*
X19252797Y-27360001D01*
X19252795Y-27360000D01*
X19150015Y-27349500D01*
X19150008Y-27349500D01*
X17915783Y-27349500D01*
X17848744Y-27329815D01*
X17828102Y-27313181D01*
X15186819Y-24671898D01*
X15153334Y-24610575D01*
X15150500Y-24584217D01*
X15150500Y-21948631D01*
X15170185Y-21881592D01*
X15222989Y-21835837D01*
X15292147Y-21825893D01*
X15347386Y-21848313D01*
X15463828Y-21932914D01*
X15674197Y-22040102D01*
X15898752Y-22113065D01*
X15898751Y-22113065D01*
X16131948Y-22150000D01*
X16368052Y-22150000D01*
X16601247Y-22113065D01*
X16825802Y-22040102D01*
X17036163Y-21932918D01*
X17036169Y-21932914D01*
X17119104Y-21872658D01*
X17119105Y-21872658D01*
X16420234Y-21173787D01*
X16462292Y-21162518D01*
X16587708Y-21090110D01*
X16690110Y-20987708D01*
X16762518Y-20862292D01*
X16773787Y-20820234D01*
X17472658Y-21519105D01*
X17472658Y-21519104D01*
X17532914Y-21436169D01*
X17532918Y-21436163D01*
X17640102Y-21225802D01*
X17713065Y-21001247D01*
X17750000Y-20768052D01*
X17750000Y-20531947D01*
X21250000Y-20531947D01*
X21250000Y-20768052D01*
X21286934Y-21001247D01*
X21359897Y-21225802D01*
X21467087Y-21436174D01*
X21527338Y-21519104D01*
X21527340Y-21519105D01*
X22226212Y-20820233D01*
X22237482Y-20862292D01*
X22309890Y-20987708D01*
X22412292Y-21090110D01*
X22537708Y-21162518D01*
X22579765Y-21173787D01*
X21880893Y-21872658D01*
X21963828Y-21932914D01*
X22174197Y-22040102D01*
X22398752Y-22113065D01*
X22398751Y-22113065D01*
X22631948Y-22150000D01*
X22868052Y-22150000D01*
X23101247Y-22113065D01*
X23325802Y-22040102D01*
X23536163Y-21932918D01*
X23536169Y-21932914D01*
X23619104Y-21872658D01*
X23619105Y-21872658D01*
X22920233Y-21173787D01*
X22962292Y-21162518D01*
X23087708Y-21090110D01*
X23190110Y-20987708D01*
X23262518Y-20862292D01*
X23273787Y-20820233D01*
X23972658Y-21519105D01*
X23972658Y-21519104D01*
X24032914Y-21436169D01*
X24032918Y-21436163D01*
X24140102Y-21225802D01*
X24213065Y-21001247D01*
X24250000Y-20768052D01*
X24250000Y-20531947D01*
X24213065Y-20298752D01*
X24140102Y-20074197D01*
X24032914Y-19863828D01*
X23972658Y-19780894D01*
X23972658Y-19780893D01*
X23273787Y-20479765D01*
X23262518Y-20437708D01*
X23190110Y-20312292D01*
X23087708Y-20209890D01*
X22962292Y-20137482D01*
X22920234Y-20126212D01*
X23619105Y-19427340D01*
X23619104Y-19427338D01*
X23536174Y-19367087D01*
X23325802Y-19259897D01*
X23101247Y-19186934D01*
X23101248Y-19186934D01*
X22868052Y-19150000D01*
X22631948Y-19150000D01*
X22398752Y-19186934D01*
X22174197Y-19259897D01*
X21963830Y-19367084D01*
X21880894Y-19427340D01*
X22579766Y-20126212D01*
X22537708Y-20137482D01*
X22412292Y-20209890D01*
X22309890Y-20312292D01*
X22237482Y-20437708D01*
X22226212Y-20479766D01*
X21527340Y-19780894D01*
X21467084Y-19863830D01*
X21359897Y-20074197D01*
X21286934Y-20298752D01*
X21250000Y-20531947D01*
X17750000Y-20531947D01*
X17713065Y-20298752D01*
X17640102Y-20074197D01*
X17532914Y-19863828D01*
X17472658Y-19780894D01*
X17472658Y-19780893D01*
X16773787Y-20479765D01*
X16762518Y-20437708D01*
X16690110Y-20312292D01*
X16587708Y-20209890D01*
X16462292Y-20137482D01*
X16420233Y-20126212D01*
X17119105Y-19427340D01*
X17119104Y-19427339D01*
X17036174Y-19367087D01*
X16825802Y-19259897D01*
X16601247Y-19186934D01*
X16601248Y-19186934D01*
X16368052Y-19150000D01*
X16131948Y-19150000D01*
X15898752Y-19186934D01*
X15674197Y-19259897D01*
X15463825Y-19367087D01*
X15347385Y-19451686D01*
X15281579Y-19475166D01*
X15213525Y-19459341D01*
X15164830Y-19409235D01*
X15150500Y-19351368D01*
X15150500Y-18715782D01*
X15170185Y-18648743D01*
X15186819Y-18628101D01*
X16128102Y-17686819D01*
X16189425Y-17653334D01*
X16215783Y-17650500D01*
X16368097Y-17650500D01*
X16601368Y-17613553D01*
X16825992Y-17540568D01*
X17036433Y-17433343D01*
X17227510Y-17294517D01*
X17335208Y-17186819D01*
X17396531Y-17153334D01*
X17422889Y-17150500D01*
X21577111Y-17150500D01*
X21644150Y-17170185D01*
X21664792Y-17186819D01*
X21772490Y-17294517D01*
X21963567Y-17433343D01*
X22062991Y-17484002D01*
X22174003Y-17540566D01*
X22174005Y-17540566D01*
X22174008Y-17540568D01*
X22294412Y-17579689D01*
X22398631Y-17613553D01*
X22631903Y-17650500D01*
X22631908Y-17650500D01*
X22868097Y-17650500D01*
X23101368Y-17613553D01*
X23325992Y-17540568D01*
X23536433Y-17433343D01*
X23727510Y-17294517D01*
X23894517Y-17127510D01*
X24033343Y-16936433D01*
X24140568Y-16725992D01*
X24213553Y-16501368D01*
X24250500Y-16268097D01*
X24250500Y-16031902D01*
X24213553Y-15798631D01*
X24140566Y-15574003D01*
X24033342Y-15363566D01*
X23894517Y-15172490D01*
X23727510Y-15005483D01*
X23536433Y-14866657D01*
X23325996Y-14759433D01*
X23101368Y-14686446D01*
X22868097Y-14649500D01*
X22868092Y-14649500D01*
X22631908Y-14649500D01*
X22631903Y-14649500D01*
X22398631Y-14686446D01*
X22174003Y-14759433D01*
X21963566Y-14866657D01*
X21854550Y-14945862D01*
X21772490Y-15005483D01*
X21772488Y-15005485D01*
X21772487Y-15005485D01*
X21664792Y-15113181D01*
X21603469Y-15146666D01*
X21577111Y-15149500D01*
X17422889Y-15149500D01*
X17355850Y-15129815D01*
X17335208Y-15113181D01*
X17227512Y-15005485D01*
X17227510Y-15005483D01*
X17036433Y-14866657D01*
X16825996Y-14759433D01*
X16601368Y-14686446D01*
X16368097Y-14649500D01*
X16368092Y-14649500D01*
X16131908Y-14649500D01*
X16131903Y-14649500D01*
X15898631Y-14686446D01*
X15674003Y-14759433D01*
X15463566Y-14866657D01*
X15354550Y-14945862D01*
X15272490Y-15005483D01*
X15272488Y-15005485D01*
X15272487Y-15005485D01*
X15105485Y-15172487D01*
X15105485Y-15172488D01*
X15105483Y-15172490D01*
X15045862Y-15254550D01*
X14966657Y-15363566D01*
X14859433Y-15574003D01*
X14786446Y-15798631D01*
X14749500Y-16031902D01*
X14749500Y-16184217D01*
X14729815Y-16251256D01*
X14713181Y-16271898D01*
X13762181Y-17222898D01*
X13700858Y-17256383D01*
X13631166Y-17251399D01*
X13575233Y-17209527D01*
X13550816Y-17144063D01*
X13550500Y-17135217D01*
X13550500Y-13674500D01*
X13570185Y-13607461D01*
X13622989Y-13561706D01*
X13674500Y-13550500D01*
X24725500Y-13550500D01*
X24792539Y-13570185D01*
G37*
%TD.AperFunction*%
%TD*%
M02*
